<svg width="15" height="16" viewBox="0 0 15 16" fill="none" xmlns="http://www.w3.org/2000/svg">
<path d="M5.29708 0.506058C5.47283 0.505696 5.64858 0.505263 5.82434 0.504762C6.19158 0.504046 6.55881 0.504332 6.92605 0.505367C7.34783 0.506534 7.76956 0.505443 8.19133 0.503212C8.60045 0.501133 9.00956 0.501015 9.41869 0.501659C9.59122 0.501715 9.76375 0.501248 9.93628 0.500225C11.419 0.492781 12.6308 0.664986 13.7617 1.72287C14.1497 2.13219 14.4544 2.57938 14.6762 3.09904C14.6996 3.15167 14.723 3.20431 14.7471 3.25854C15.053 4.07695 14.9936 4.93795 14.9914 5.79906C14.9918 5.97481 14.9922 6.15056 14.9927 6.32631C14.9934 6.69356 14.9932 7.06078 14.9921 7.42803C14.991 7.8498 14.992 8.27153 14.9943 8.69331C14.9964 9.10243 14.9965 9.51153 14.9958 9.92066C14.9958 10.0932 14.9962 10.2657 14.9973 10.4383C15.0047 11.921 14.8325 13.1327 13.7746 14.2636C13.3653 14.6517 12.9181 14.9564 12.3985 15.1782C12.3458 15.2016 12.2932 15.225 12.2389 15.2491C11.4205 15.555 10.5595 15.4956 9.69843 15.4934C9.52268 15.4938 9.34693 15.4942 9.17118 15.4947C8.80393 15.4954 8.43671 15.4951 8.06946 15.4941C7.64768 15.4929 7.22596 15.494 6.80418 15.4963C6.39506 15.4983 5.98596 15.4984 5.57683 15.4978C5.4043 15.4977 5.23176 15.4982 5.05924 15.4992C4.1331 15.5039 3.31252 15.4995 2.45902 15.1092C2.3984 15.0816 2.33778 15.0541 2.27532 15.0257C1.8371 14.8138 1.49209 14.4809 1.14756 14.1429C1.10841 14.1054 1.06926 14.0679 1.02893 14.0293C0.317399 13.2819 0.0113242 12.2106 0.0141953 11.2062C0.0136107 11.1297 0.0130261 11.0531 0.0124238 10.9743C0.0108182 10.7231 0.01074 10.4719 0.010825 10.2206C0.0103343 10.0446 0.00980282 9.86854 0.00923256 9.69249C0.00830618 9.32401 0.00818286 8.95554 0.00860063 8.58706C0.009058 8.16376 0.00748366 7.7405 0.00492067 7.3172C0.0025294 6.90709 0.00208976 6.49699 0.00237293 6.08687C0.0022568 5.91376 0.00159715 5.74064 0.00036128 5.56754C-0.00907874 4.08159 0.160471 2.86943 1.2209 1.73582C1.63022 1.34777 2.07741 1.04304 2.59706 0.821249C2.6497 0.797871 2.70234 0.774492 2.75657 0.750405C3.57498 0.444502 4.43598 0.503895 5.29708 0.506058ZM2.11174 2.82995C1.54077 3.51463 1.41357 4.23648 1.41254 5.10332C1.41219 5.17207 1.41185 5.24082 1.4115 5.31165C1.41049 5.53847 1.41002 5.76528 1.40964 5.99211C1.40924 6.15048 1.40884 6.30884 1.40844 6.46721C1.40772 6.79921 1.40732 7.13121 1.40708 7.46321C1.4067 7.88699 1.40504 8.31075 1.40307 8.73453C1.40178 9.06176 1.40143 9.38899 1.40132 9.71623C1.40112 9.87236 1.40056 10.0285 1.39965 10.1846C1.3831 11.835 1.3831 11.835 2.17025 13.2455C2.87452 13.9057 3.68608 14.0953 4.62486 14.0928C4.72802 14.0933 4.72802 14.0933 4.83327 14.0939C5.05897 14.0948 5.28465 14.0948 5.51036 14.0946C5.66843 14.0949 5.8265 14.0952 5.98457 14.0955C6.31533 14.096 6.64609 14.096 6.97686 14.0956C7.39901 14.0952 7.82114 14.0964 8.24328 14.098C8.56963 14.099 8.89597 14.0991 9.22232 14.0989C9.37787 14.0989 9.53343 14.0992 9.68899 14.0999C10.8879 14.1047 11.8703 14.089 12.8172 13.2585C13.452 12.6004 13.5819 11.7717 13.583 10.8961C13.5833 10.8274 13.5837 10.7586 13.584 10.6878C13.585 10.461 13.5855 10.2342 13.5859 10.0074C13.5863 9.84899 13.5867 9.69062 13.5871 9.53225C13.5878 9.20025 13.5882 8.86825 13.5884 8.53625C13.5888 8.11247 13.5905 7.68871 13.5924 7.26494C13.5937 6.9377 13.5941 6.61047 13.5942 6.28323C13.5944 6.1271 13.595 5.97096 13.5959 5.81483C13.6023 4.63383 13.6021 3.62305 12.767 2.69568C12.1102 2.08701 11.3038 1.90474 10.4359 1.90558C10.3659 1.90511 10.2959 1.90465 10.2238 1.90417C9.99359 1.90287 9.76338 1.90259 9.53315 1.90244C9.37205 1.902 9.21095 1.90154 9.04985 1.90105C8.71247 1.90023 8.37509 1.89997 8.0377 1.90005C7.60727 1.90006 7.17687 1.89818 6.74645 1.8958C6.41371 1.89426 6.08097 1.89399 5.74822 1.89406C5.58964 1.8939 5.43106 1.89329 5.27248 1.89222C4.07117 1.88485 3.00213 1.90874 2.11174 2.82995Z" fill="#0DD8FB"/>
<path d="M9.91253 4.9219C10.5993 5.47163 11.2014 6.4002 11.3483 7.27815C11.4515 8.48188 11.2266 9.62578 10.4483 10.58C9.70026 11.3597 8.74048 11.8451 7.66169 11.8886C6.60827 11.9093 5.78938 11.5446 4.93068 10.9553C4.09544 10.1201 3.64159 9.18528 3.6106 8.00884C3.6295 6.9816 4.0148 5.98251 4.73655 5.23925C5.24017 4.79411 5.75829 4.49 6.39312 4.27292C6.47854 4.24302 6.56395 4.21313 6.65196 4.18232C7.80388 3.93617 8.9626 4.25192 9.91253 4.9219ZM5.47424 6.52482C5.14032 7.00291 4.90958 7.69084 5.01264 8.2763C5.19621 9.12677 5.54571 9.69938 6.27718 10.1785C6.9122 10.5201 7.53283 10.5614 8.21794 10.3772C8.93533 10.1392 9.41756 9.70061 9.77529 9.03557C10.0821 8.25167 10.025 7.59755 9.70627 6.8268C9.36115 6.21987 8.81269 5.78763 8.1446 5.58869C7.09889 5.35501 6.16382 5.71173 5.47424 6.52482Z" fill="#0DD6F9"/>
<path d="M11.7772 3.03029C12.1097 3.1934 12.3043 3.38804 12.4674 3.72053C12.5243 4.04401 12.5003 4.2747 12.3553 4.57039C12.148 4.80492 11.9618 4.99913 11.6424 5.05598C11.3182 5.07021 11.0858 5.00611 10.8109 4.82491C10.5759 4.57091 10.4748 4.39246 10.4485 4.04408C10.4735 3.67468 10.5749 3.4638 10.8497 3.2158C11.1587 3.00188 11.407 2.98597 11.7772 3.03029Z" fill="#0DD8FB"/>
<path d="M1.6306 1.37354C1.77852 1.40058 1.77852 1.40058 1.9067 1.44256C1.77358 1.58125 1.63979 1.71916 1.50549 1.8567C1.44884 1.91596 1.44884 1.91596 1.39104 1.97642C1.29073 2.07855 1.18483 2.17511 1.07841 2.27085C1.01008 2.27085 0.941742 2.27085 0.871338 2.27085C0.977116 2.02346 1.12448 1.85474 1.31137 1.66257C1.36457 1.60661 1.41778 1.55064 1.4726 1.49298C1.52474 1.45356 1.57688 1.41415 1.6306 1.37354Z" fill="#0CC9E5"/>
<path d="M5.15086 4.89404C5.19642 4.91682 5.24198 4.9396 5.28891 4.96307C4.71746 5.62441 4.71746 5.62441 4.52965 5.79135C4.48409 5.79135 4.43854 5.79135 4.3916 5.79135C4.49953 5.52644 4.66943 5.3657 4.87477 5.17014C4.92744 5.11746 4.98012 5.06479 5.03439 5.01052C5.07282 4.97208 5.11126 4.93365 5.15086 4.89404Z" fill="#0CC2DB"/>
<path d="M14.5381 12.6938C14.5836 12.7166 14.6292 12.7394 14.6761 12.7629C14.5915 13.0426 14.4898 13.2767 14.331 13.5221C14.2668 13.3423 14.2517 13.2708 14.3267 13.0907C14.363 13.0309 14.363 13.0309 14.4 12.9699C14.4456 12.9699 14.4911 12.9699 14.5381 12.9699C14.5381 12.8788 14.5381 12.7877 14.5381 12.6938Z" fill="#0CBDD6"/>
<path d="M13.3647 1.58057C13.6956 1.63641 13.7882 1.80557 13.986 2.06373C13.7789 2.06373 13.7789 2.06373 13.6681 1.95804C13.632 1.9132 13.596 1.86835 13.5589 1.82215C13.5223 1.77731 13.4857 1.73246 13.4481 1.68626C13.4206 1.65138 13.3931 1.6165 13.3647 1.58057Z" fill="#0DCDE7"/>
<path d="M14.4001 2.68506C14.6044 2.91727 14.6709 3.14694 14.7452 3.44432C14.6996 3.42154 14.6541 3.39877 14.6072 3.3753C14.6072 3.30696 14.6072 3.23863 14.6072 3.16823C14.5616 3.16823 14.516 3.16823 14.4691 3.16823C14.3958 3.00429 14.3958 3.00429 14.3311 2.82311C14.3538 2.77755 14.3766 2.73199 14.4001 2.68506Z" fill="#0BB8D2"/>
</svg>
