<svg width="119" height="20" viewBox="0 0 119 20" fill="none" xmlns="http://www.w3.org/2000/svg">
<path d="M6.52075 10.8333L11.1874 15.4999L9.99992 16.6666L3.33325 9.99992L9.99992 3.33325L11.1874 4.49992L6.52075 9.16659H16.6666V10.8333H6.52075Z" fill="#0EDBFF"/>
<path d="M30.5392 14.12C29.5232 14.12 28.6552 13.948 27.9352 13.604C27.2152 13.252 26.6632 12.752 26.2792 12.104C25.8952 11.456 25.7032 10.684 25.7032 9.788C25.7032 9.084 25.8232 8.464 26.0632 7.928C26.3032 7.392 26.6352 6.944 27.0592 6.584C27.4912 6.216 27.9912 5.94 28.5592 5.756C29.1272 5.572 29.7352 5.48 30.3832 5.48C30.7592 5.48 31.1392 5.516 31.5232 5.588C31.9072 5.66 32.2832 5.764 32.6512 5.9L33.0352 6.056L32.7592 7.268L32.3032 7.172C31.9672 7.1 31.6392 7.044 31.3192 7.004C31.0072 6.956 30.7112 6.932 30.4312 6.932C29.8232 6.932 29.2832 7.036 28.8112 7.244C28.3472 7.452 27.9792 7.768 27.7072 8.192C27.4432 8.608 27.3112 9.144 27.3112 9.8C27.3112 10.448 27.4392 10.992 27.6952 11.432C27.9512 11.864 28.3232 12.192 28.8112 12.416C29.2992 12.632 29.8872 12.74 30.5752 12.74C30.8072 12.74 31.0512 12.724 31.3072 12.692C31.5632 12.66 31.8192 12.612 32.0752 12.548V10.628H29.7952V9.248H33.6472V13.352C33.3672 13.496 33.0552 13.628 32.7112 13.748C32.3672 13.86 32.0112 13.948 31.6432 14.012C31.2752 14.084 30.9072 14.12 30.5392 14.12ZM38.9696 14.12C38.1056 14.12 37.3536 13.94 36.7136 13.58C36.0736 13.212 35.5776 12.704 35.2256 12.056C34.8736 11.408 34.6976 10.652 34.6976 9.788C34.6976 8.932 34.8776 8.18 35.2376 7.532C35.5976 6.884 36.0976 6.38 36.7376 6.02C37.3856 5.66 38.1296 5.48 38.9696 5.48C39.8416 5.48 40.5976 5.664 41.2376 6.032C41.8776 6.392 42.3736 6.896 42.7256 7.544C43.0776 8.192 43.2536 8.944 43.2536 9.8C43.2536 10.656 43.0736 11.408 42.7136 12.056C42.3536 12.704 41.8496 13.212 41.2016 13.58C40.5616 13.94 39.8176 14.12 38.9696 14.12ZM38.9696 12.668C39.5056 12.668 39.9736 12.56 40.3736 12.344C40.7736 12.12 41.0856 11.792 41.3096 11.36C41.5336 10.928 41.6456 10.404 41.6456 9.788C41.6456 9.172 41.5336 8.652 41.3096 8.228C41.0936 7.804 40.7856 7.484 40.3856 7.268C39.9856 7.044 39.5136 6.932 38.9696 6.932C38.4416 6.932 37.9776 7.044 37.5776 7.268C37.1776 7.484 36.8656 7.804 36.6416 8.228C36.4176 8.652 36.3056 9.176 36.3056 9.8C36.3056 10.416 36.4136 10.94 36.6296 11.372C36.8536 11.796 37.1656 12.12 37.5656 12.344C37.9656 12.56 38.4336 12.668 38.9696 12.668ZM47.7386 14V5.6H51.6866C52.2626 5.6 52.7386 5.696 53.1146 5.888C53.4986 6.08 53.7866 6.344 53.9786 6.68C54.1706 7.008 54.2666 7.388 54.2666 7.82C54.2666 8.188 54.1986 8.54 54.0626 8.876C53.9266 9.204 53.6586 9.46 53.2586 9.644V9.656C53.6426 9.768 53.9626 9.988 54.2186 10.316C54.4746 10.644 54.6026 11.036 54.6026 11.492C54.6026 11.996 54.4946 12.436 54.2786 12.812C54.0626 13.188 53.7466 13.48 53.3306 13.688C52.9226 13.896 52.4186 14 51.8186 14H47.7386ZM49.3106 12.62H51.7346C52.1586 12.62 52.4746 12.528 52.6826 12.344C52.8906 12.152 52.9946 11.856 52.9946 11.456C52.9946 11.104 52.8906 10.84 52.6826 10.664C52.4746 10.488 52.1826 10.4 51.8066 10.4H49.3106V12.62ZM49.3106 9.02H51.6866C52.0466 9.02 52.3146 8.936 52.4906 8.768C52.6746 8.592 52.7666 8.332 52.7666 7.988C52.7666 7.66 52.6706 7.412 52.4786 7.244C52.2946 7.068 51.9986 6.98 51.5906 6.98H49.3106V9.02ZM54.7554 14L58.0194 5.6H59.8434L63.1314 14H61.4034L58.9434 7.28H58.9074L56.3874 14H54.7554ZM56.7834 12.332V10.952H61.0554V12.332H56.7834ZM67.3413 14.096C66.5253 14.096 65.7973 13.936 65.1573 13.616C64.5173 13.288 64.0093 12.804 63.6333 12.164C63.2653 11.524 63.0813 10.732 63.0813 9.788C63.0813 9.092 63.1933 8.48 63.4173 7.952C63.6413 7.416 63.9493 6.964 64.3413 6.596C64.7413 6.228 65.2053 5.952 65.7333 5.768C66.2613 5.576 66.8253 5.48 67.4253 5.48C67.8573 5.48 68.2773 5.524 68.6853 5.612C69.0933 5.7 69.4773 5.812 69.8373 5.948L70.0653 6.044L69.7653 7.256L69.4413 7.196C69.0813 7.132 68.7493 7.072 68.4453 7.016C68.1413 6.96 67.8293 6.932 67.5093 6.932C66.9573 6.932 66.4693 7.036 66.0453 7.244C65.6213 7.452 65.2893 7.768 65.0493 8.192C64.8093 8.608 64.6893 9.136 64.6893 9.776C64.6893 10.424 64.8013 10.96 65.0253 11.384C65.2493 11.808 65.5653 12.124 65.9733 12.332C66.3893 12.54 66.8773 12.644 67.4373 12.644C67.7413 12.644 68.0573 12.616 68.3853 12.56C68.7213 12.504 69.0733 12.432 69.4413 12.344L69.9813 12.2L70.2813 13.4L69.9093 13.556C69.5013 13.732 69.0773 13.868 68.6373 13.964C68.1973 14.052 67.7653 14.096 67.3413 14.096ZM76.3736 14L73.7936 10.508H72.2096L72.4736 9.128H73.6976L76.2776 5.6H78.1736L75.1136 9.716L78.3776 14H76.3736ZM71.3936 14V5.6H72.9656V14H71.3936ZM82.4683 14V5.6H84.0403V8.984H88.2763V5.6H89.8483V14H88.2763V10.364H84.0403V14H82.4683ZM95.4793 14.12C94.6153 14.12 93.8633 13.94 93.2233 13.58C92.5833 13.212 92.0873 12.704 91.7353 12.056C91.3833 11.408 91.2073 10.652 91.2073 9.788C91.2073 8.932 91.3873 8.18 91.7473 7.532C92.1073 6.884 92.6073 6.38 93.2473 6.02C93.8953 5.66 94.6393 5.48 95.4793 5.48C96.3513 5.48 97.1073 5.664 97.7473 6.032C98.3873 6.392 98.8833 6.896 99.2353 7.544C99.5873 8.192 99.7633 8.944 99.7633 9.8C99.7633 10.656 99.5833 11.408 99.2233 12.056C98.8633 12.704 98.3593 13.212 97.7113 13.58C97.0713 13.94 96.3273 14.12 95.4793 14.12ZM95.4793 12.668C96.0153 12.668 96.4833 12.56 96.8833 12.344C97.2833 12.12 97.5953 11.792 97.8193 11.36C98.0433 10.928 98.1553 10.404 98.1553 9.788C98.1553 9.172 98.0433 8.652 97.8193 8.228C97.6033 7.804 97.2953 7.484 96.8953 7.268C96.4953 7.044 96.0233 6.932 95.4793 6.932C94.9513 6.932 94.4873 7.044 94.0873 7.268C93.6873 7.484 93.3753 7.804 93.1513 8.228C92.9273 8.652 92.8153 9.176 92.8153 9.8C92.8153 10.416 92.9233 10.94 93.1393 11.372C93.3633 11.796 93.6753 12.12 94.0753 12.344C94.4753 12.56 94.9433 12.668 95.4793 12.668ZM101.125 14V5.6H102.673L105.661 10.136H105.685L108.757 5.6H110.281V14H108.709V8.336L106.261 11.888H105.073L102.661 8.336V14H101.125ZM112.03 14V5.6H118.33V6.98H113.602V9.008H117.85V10.388H113.602V12.62H118.414V14H112.03Z" fill="#0EDBFF"/>
</svg>
