<svg width="24" height="25" viewBox="0 0 24 25" fill="none" xmlns="http://www.w3.org/2000/svg">
<path d="M17.1762 9.16347C18.7196 10.2706 20.6102 10.9221 22.6523 10.9221V6.97861C22.2658 6.97869 21.8803 6.93825 21.5023 6.85786V9.96193C19.4604 9.96193 17.57 9.31049 16.0262 8.2034V16.2509C16.0262 20.2766 12.7743 23.5399 8.76309 23.5399C7.26641 23.5399 5.87531 23.0858 4.71973 22.307C6.03864 23.6604 7.87796 24.5 9.91285 24.5C13.9243 24.5 17.1764 21.2367 17.1764 17.2108V9.16347H17.1762ZM18.5949 5.18499C17.8061 4.32023 17.2883 3.20267 17.1762 1.96717V1.45996H16.0864C16.3607 3.03028 17.2964 4.37187 18.5949 5.18499ZM7.25681 19.2178C6.81614 18.6379 6.578 17.9286 6.57907 17.1992C6.57907 15.358 8.06647 13.8651 9.90153 13.8651C10.2435 13.865 10.5835 13.9176 10.9094 14.0214V9.98977C10.5285 9.93739 10.1441 9.91515 9.75986 9.9233V13.0613C9.4337 12.9575 9.0936 12.9048 8.75152 12.9051C6.91646 12.9051 5.42914 14.3979 5.42914 16.2393C5.42914 17.5414 6.1726 18.6687 7.25681 19.2178Z" fill="#0EDBFF"/>
<path d="M16.0269 8.20332C17.5707 9.31041 19.4611 9.96185 21.503 9.96185V6.85778C20.3632 6.61414 19.3543 6.0164 18.5956 5.18499C17.2971 4.37179 16.3615 3.0302 16.0872 1.45996H13.2246V17.2106C13.2181 19.0468 11.7332 20.5336 9.90211 20.5336C8.82306 20.5336 7.86443 20.0174 7.25731 19.2178C6.17318 18.6687 5.42972 17.5413 5.42972 16.2394C5.42972 14.3981 6.91704 12.9052 8.7521 12.9052C9.10369 12.9052 9.44256 12.9602 9.76044 13.0614V9.92338C5.8197 10.0051 2.65039 13.2365 2.65039 17.2107C2.65039 19.1946 3.43962 20.9931 4.72055 22.3071C5.87614 23.0858 7.26724 23.54 8.76391 23.54C12.7752 23.54 16.027 20.2765 16.027 16.2509V8.20332H16.0269Z" fill="black"/>
<path d="M21.5025 6.8578V6.01848C20.4748 6.02005 19.4672 5.73119 18.5952 5.18493C19.3671 6.03306 20.3835 6.61787 21.5025 6.8578ZM16.0867 1.45998C16.0605 1.30991 16.0404 1.15885 16.0265 1.00721V0.5H12.074V16.2508C12.0677 18.0868 10.5829 19.5736 8.75164 19.5736C8.214 19.5736 7.70638 19.4455 7.25685 19.2179C7.86397 20.0174 8.82259 20.5336 9.90164 20.5336C11.7326 20.5336 13.2177 19.0469 13.2241 17.2107V1.45998H16.0867ZM9.76014 9.92341V9.02989C9.42988 8.98459 9.09691 8.96186 8.76353 8.96202C4.75192 8.96194 1.5 12.2254 1.5 16.2508C1.5 18.7745 2.77806 20.9987 4.72017 22.307C3.43924 20.993 2.65001 19.1944 2.65001 17.2106C2.65001 13.2365 5.81924 10.0051 9.76014 9.92341Z" fill="#0EDBFF"/>
</svg>
