<svg width="25" height="25" viewBox="0 0 25 25" fill="none" xmlns="http://www.w3.org/2000/svg">
<path d="M12.5 7.5C12.5 6.43913 12.0786 5.42172 11.3284 4.67157C10.5783 3.92143 9.56087 3.5 8.5 3.5H2.5V18.5H9.5C10.2956 18.5 11.0587 18.8161 11.6213 19.3787C12.1839 19.9413 12.5 20.7044 12.5 21.5M12.5 7.5V21.5M12.5 7.5C12.5 6.43913 12.9214 5.42172 13.6716 4.67157C14.4217 3.92143 15.4391 3.5 16.5 3.5H22.5V18.5H15.5C14.7044 18.5 13.9413 18.8161 13.3787 19.3787C12.8161 19.9413 12.5 20.7044 12.5 21.5" stroke="#0EDBFF" stroke-width="2" stroke-linecap="round" stroke-linejoin="round"/>
</svg>
