<svg width="473" height="367.5" viewBox="0 0 473 367.5" fill="none" xmlns="http://www.w3.org/2000/svg">
<g opacity="0.75">
<path d="M11.7769 341.629L413.28 341.629L461.326 284.360L461.326 23.2640L59.8014 23.2640L11.7769 80.3323L11.7769 341.629Z" fill="black"/>
</g>
<path d="M320.722 22.5777L442.969 22.5777L432.451 0L331.24 0L320.722 22.5777Z" fill="#0EDBFF"/>
<path d="M11.7766 341.070L11.7769 80.6229L59.8014 23.8164L461.326 23.8164L461.326 283.801L413.28 341.070L11.7766 341.070ZM8.54221 344.999L11.7766 344.999L413.28 344.999L414.394 344.999L415.272 344.001L463.318 286.732L464.56 285.225L464.56 283.801L464.56 23.8164L464.56 19.0200L461.326 19.0200L59.8014 19.0200L58.6876 19.0200L57.8093 20.0079L9.78481 76.8591L8.54244 78.3898L8.54244 80.6834L8.54221 341.070L8.54221 344.999Z" fill="#0EDBFF"/>
<path d="M30.6693 345.036L152.937 345.036L142.398 367.5L41.2081 367.5L30.6693 345.036Z" fill="#0EDBFF"/>
<path d="M0.0803566 198.440L11.3689 198.440L11.3689 123.828L0.0803624 123.828L0.0803566 198.440Z" fill="#0EDBFF"/>
<path d="M461.711 110.779L473 110.779L473 36.1683L461.711 36.1683L461.711 110.779Z" fill="#0EDBFF"/>
<path d="M468.33 288.409L415.722 349.518L268.628 349.518L268.628 354.367L416.836 354.367L471.565 291.240L471.565 266.680L468.33 266.680L468.33 288.409Z" fill="#0EDBFF"/>
<path d="M4.75038 95.6392L4.75038 74.8372L57.3588 13.3692L204.474 13.3692L204.474 8.6014L56.245 8.6014L1.51593 72.5515L1.51593 95.6392L4.75038 95.6392Z" fill="#0EDBFF"/>
</svg>