<svg width="473" height="210" viewBox="0 0 473 210" fill="none" xmlns="http://www.w3.org/2000/svg">
<g opacity="0.75">
<path d="M11.7769 194.079L413.28 194.079L461.326 161.757L461.326 13.3533L59.8014 13.3532L11.7769 45.6568L11.7769 194.079Z" fill="black"/>
</g>
<path d="M320.722 12.9689L442.969 12.9689L432.451 -7.68828e-05L331.24 -8.25498e-05L320.722 12.9689Z" fill="#0EDBFF"/>
<path d="M11.7766 193.716L11.7769 46.0229L59.8014 13.7193L461.326 13.7193L461.326 161.412L413.28 193.716L11.7766 193.716ZM8.54221 196.478L11.7766 196.478L413.28 196.478L414.394 196.478L415.272 195.892L463.318 163.571L464.56 162.747L464.56 161.412L464.56 13.7193L464.56 10.9573L461.326 10.9573L59.8014 10.9572L58.6876 10.9572L57.8093 11.5426L9.78481 43.8645L8.54244 44.6876L8.54244 46.0412L8.54221 193.716L8.54221 196.478Z" fill="#0EDBFF"/>
<path d="M30.6693 196.518L152.937 196.518L142.398 209.505L41.2081 209.505L30.6693 196.518Z" fill="#0EDBFF"/>
<path d="M0.0803566 113.136L11.3689 113.136L11.3689 70.7903L0.0803624 70.7903L0.0803566 113.136Z" fill="#0EDBFF"/>
<path d="M461.711 63.4001L473 63.4001L473 21.0543L461.711 21.0543L461.711 63.4001Z" fill="#0EDBFF"/>
<path d="M468.33 164.342L415.722 199.755L268.628 199.755L268.628 202.518L416.836 202.518L471.565 165.696L471.565 152.068L468.33 152.068L468.33 164.342Z" fill="#0EDBFF"/>
<path d="M4.75038 54.6566L4.75038 43.1327L57.3588 7.71944L204.474 7.71944L204.474 4.95736L56.245 4.95735L1.51593 41.7791L1.51593 54.6566L4.75038 54.6566Z" fill="#0EDBFF"/>
</svg>
