<svg width="13" height="16" viewBox="0 0 13 16" fill="none" xmlns="http://www.w3.org/2000/svg">
<path d="M6.8153 0.5C7.68637 0.5 8.55745 0.5 9.45492 0.5C9.52368 0.869452 9.59245 1.2389 9.66331 1.61955C10.0463 2.5564 10.6615 3.29979 11.5844 3.73593C12.0584 3.9232 12.483 3.98218 12.9976 4.06857C12.9976 4.92293 12.9976 5.77729 12.9976 6.65754C11.8626 6.65754 11.8626 6.65754 11.3782 6.52197C11.3295 6.51056 11.2809 6.49915 11.2307 6.48739C10.8207 6.37755 10.4631 6.18568 10.0917 5.98418C10.0371 5.95476 9.9824 5.92535 9.92609 5.89504C9.79207 5.82288 9.65817 5.75051 9.52438 5.67793C9.52413 5.74836 9.52387 5.81879 9.52361 5.89135C9.52103 6.55932 9.517 7.22727 9.51161 7.89523C9.50888 8.23853 9.50663 8.58181 9.50556 8.92512C9.50449 9.25724 9.50208 9.58933 9.49879 9.92143C9.49777 10.0473 9.49722 10.1732 9.49716 10.2991C9.49577 11.7698 9.17892 13.0176 8.12154 14.0942C7.09944 15.0923 5.98112 15.502 4.56988 15.5C3.21166 15.4693 2.0849 14.8639 1.14533 13.8996C0.265179 12.881 -0.0673916 11.5507 0.00786726 10.2261C0.138431 9.27233 0.465029 8.46601 1.04982 7.70712C1.08098 7.66418 1.11214 7.62125 1.14425 7.57701C1.83827 6.68052 2.90775 6.20916 3.98466 5.97968C5.02314 5.89251 5.02314 5.89251 5.42603 6.02779C5.42603 6.90524 5.42603 7.78269 5.42603 8.68672C5.05926 8.68672 4.69249 8.68672 4.31461 8.68672C3.69152 8.87008 3.26144 9.13781 2.93402 9.71007C2.68172 10.1897 2.65611 10.6691 2.71695 11.2057C2.91776 11.8312 3.25898 12.2731 3.81425 12.6112C4.29008 12.8344 4.89898 12.8255 5.39971 12.6992C5.95422 12.4746 6.3848 12.0914 6.62834 11.5414C6.73152 11.2713 6.75518 11.0628 6.75683 10.774C6.75751 10.6837 6.75819 10.5933 6.75889 10.5002C6.7593 10.3998 6.7597 10.2995 6.7601 10.1991C6.76076 10.0936 6.76146 9.98813 6.76218 9.88262C6.76406 9.59596 6.76552 9.3093 6.76691 9.02264C6.76842 8.72315 6.77033 8.42366 6.77219 8.12417C6.77566 7.55693 6.77878 6.9897 6.78178 6.42246C6.7852 5.77673 6.78902 5.13099 6.79287 4.48526C6.80078 3.15684 6.80815 1.82842 6.8153 0.5Z" fill="#0DD7FA"/>
</svg>
