<svg width="17" height="16" viewBox="0 0 17 16" fill="none" xmlns="http://www.w3.org/2000/svg">
<path d="M16.5418 0.633776C16.8166 0.836946 16.8867 0.944593 16.9869 1.28674C17.0334 2.04187 16.9498 2.77121 16.8377 3.51543C16.8218 3.62484 16.8059 3.73426 16.7902 3.84369C16.7479 4.13523 16.7048 4.42661 16.6615 4.71797C16.6163 5.02286 16.572 5.32789 16.5277 5.63291C16.4555 6.12883 16.3828 6.62468 16.3097 7.12046C16.2126 7.7795 16.1166 8.43871 16.0211 9.09802C16 9.24406 16 9.24406 15.9784 9.39306C15.951 9.58209 15.9237 9.77112 15.8963 9.96015C15.8582 10.2226 15.82 10.485 15.7818 10.7475C15.7699 10.8292 15.7579 10.9109 15.7457 10.9951C15.7226 11.1532 15.6996 11.3112 15.6765 11.4692C15.6207 11.8524 15.5658 12.2357 15.5124 12.6192C15.4965 12.7325 15.4965 12.7325 15.4804 12.8482C15.4607 12.9898 15.4411 13.1315 15.4217 13.2732C15.3139 14.0475 15.1807 14.7271 14.639 15.2996C14.2467 15.5608 13.8026 15.5262 13.3624 15.423C12.926 15.2628 12.5648 15.0004 12.1903 14.7217C12.0785 14.6394 11.9666 14.5572 11.8547 14.475C11.7975 14.4329 11.7402 14.3909 11.6812 14.3476C11.4074 14.1478 11.1311 13.9521 10.8544 13.7569C10.8003 13.7187 10.7463 13.6806 10.6906 13.6412C10.5264 13.5254 10.3621 13.4097 10.1977 13.294C10.087 13.2159 9.97621 13.1378 9.86545 13.0597C9.75651 12.9829 9.64758 12.9061 9.53865 12.8292C9.48617 12.7922 9.43369 12.7552 9.37963 12.7171C9.13624 12.5455 8.89274 12.3741 8.64893 12.2032C8.56584 12.1448 8.48275 12.0864 8.39714 12.0263C8.3252 11.9759 8.25325 11.9255 8.17913 11.8736C7.36785 11.2853 7.36785 11.2853 7.28253 10.8221C7.27371 10.3267 7.44359 10.0909 7.75027 9.74742C7.82865 9.66373 7.82865 9.66373 7.90862 9.57835C7.95926 9.52256 8.00991 9.46676 8.06209 9.40928C8.36308 9.08281 8.67774 8.77961 9.00427 8.4823C9.16732 8.32845 9.32067 8.16776 9.47384 8.00294C9.6726 7.78908 9.87489 7.58652 10.0901 7.39144C10.3399 7.16415 10.5729 6.92447 10.8043 6.67629C11.0341 6.42982 11.2652 6.19174 11.5135 5.96632C11.7501 5.75037 11.9788 5.52797 12.2032 5.29781C12.2611 5.23859 12.319 5.17938 12.3787 5.11837C12.5332 4.92604 12.6076 4.75875 12.6825 4.52047C12.554 4.44565 12.554 4.44565 12.3695 4.43755C12.1742 4.54127 12.0029 4.64745 11.8217 4.7744C11.7392 4.8306 11.7392 4.8306 11.6551 4.88794C11.1618 5.2278 10.6802 5.58559 10.1998 5.94557C9.57196 6.41569 8.93594 6.87243 8.29861 7.32792C7.79076 7.69095 7.28578 8.05678 6.7897 8.43779C5.85873 9.15257 4.95118 9.77292 3.7608 9.66126C3.36956 9.57841 2.98636 9.47353 2.602 9.36065C2.42581 9.30897 2.24924 9.25907 2.07254 9.20944C0.25352 8.6918 0.25352 8.6918 0.00427989 8.25169C-0.00550271 7.96667 -0.00550271 7.96667 0.0825407 7.67128C0.465718 7.26348 0.914709 7.05706 1.40686 6.82657C1.48973 6.78708 1.57261 6.74758 1.65799 6.70689C2.51761 6.29906 3.38318 5.90591 4.24993 5.51546C4.58758 5.36292 4.92516 5.2102 5.26273 5.05748C5.3471 5.01934 5.43147 4.9812 5.5184 4.9419C6.06391 4.69511 6.60859 4.4464 7.15261 4.19593C15.6155 0.300499 15.6155 0.300499 16.5418 0.633776Z" fill="#0DDAFE"/>
</svg>
